<svg width="40" height="40" fill="none" xmlns="http://www.w3.org/2000/svg"><g clip-path="url(#clip0)"><path d="M33.274 35.926v3.384a.69.69 0 01-.69.69H7.416a.69.69 0 01-.69-.69v-3.384a6.428 6.428 0 016.43-6.427 3.57 3.57 0 002.996-1.626c.64-.982.573-1.836.573-2.526l.013-.032a8.534 8.534 0 01-5.27-7.887v-.27a2.126 2.126 0 01-2.155-2.115V11.46c-.028-1.247.029-5.646 3.206-8.708 3.694-3.56 9.549-3.27 13.79-1.365a.173.173 0 01-.006.318l-1.106.455c-.166.068-.13.312.047.33l.537.058a8.7 8.7 0 016.44 3.996.185.185 0 01-.021.213 5.215 5.215 0 00-1.424 3.582v4.704a2.116 2.116 0 01-2.116 2.115h-.126v.27a8.534 8.534 0 01-5.27 7.887l.012.032c0 .67-.07 1.536.574 2.526a3.57 3.57 0 002.996 1.626 6.428 6.428 0 016.43 6.427z" fill="#FFDFBA"/><path d="M33.274 35.926v3.384a.69.69 0 01-.69.69H7.416a.69.69 0 01-.69-.69v-3.384a6.429 6.429 0 016.43-6.427c1.255 0 2.36-.647 2.996-1.626a5.917 5.917 0 007.698 0 3.569 3.569 0 002.996 1.626 6.429 6.429 0 016.43 6.427z" fill="#FE4F60"/><path d="M32.22 6.544a.183.183 0 01-.022.212 5.218 5.218 0 00-1.424 3.583v4.704c0 1.067-.804 2.115-2.24 2.115v-5.324a4.137 4.137 0 00-4.138-4.138h-8.792a4.137 4.137 0 00-4.137 4.138v5.324a2.126 2.126 0 01-2.155-2.115V11.46c-.028-1.247.029-5.645 3.206-8.708 3.694-3.56 9.55-3.27 13.79-1.364a.173.173 0 01-.006.317l-1.106.455c-.165.068-.13.312.047.33l.537.059a8.697 8.697 0 016.44 3.995z" fill="#42434D"/><path d="M28.534 17.428A8.534 8.534 0 0120 25.96c-4.438 0-8.533-3.45-8.533-8.803v-5.325a4.137 4.137 0 014.137-4.137h8.792a4.137 4.137 0 014.137 4.138v5.594z" fill="#FFEBD2"/><path d="M26.982 38.535h-2.069a.69.69 0 010-1.38h2.069a.69.69 0 010 1.38z" fill="#fff"/><path d="M18.068 22.938c1.403.878.296 3.03-1.24 2.414a8.535 8.535 0 01-5.361-7.924v-5.594c0-.87.268-1.676.726-2.342.561-.817 1.86-.456 1.86.618v5.594c0 3.147 1.654 5.757 4.015 7.234z" fill="#FFF3E4"/><path d="M23.373 26.762c-2.124.889-4.457.958-6.746 0 .117-.485.098-.8.098-1.415l.012-.032a8.551 8.551 0 006.526 0l.012.032c0 .616-.019.93.098 1.415z" fill="#FFD6A6"/><path d="M16.628 31.581c-.319.1-.66.155-1.027.159-3.56.031-6.462 2.846-6.462 6.405v.648A1.205 1.205 0 017.932 40h-.517a.69.69 0 01-.69-.69v-3.384a6.429 6.429 0 016.43-6.427c1.255 0 2.36-.647 2.996-1.626.257.219.531.416.82.588 1.272.758 1.07 2.676-.343 3.12z" fill="#FF6D7A"/><path d="M23.372 31.581c.319.1.66.155 1.027.159 3.56.031 6.462 2.846 6.462 6.405v.648c0 .667.54 1.207 1.207 1.207h.517a.69.69 0 00.69-.69v-3.384a6.429 6.429 0 00-6.43-6.427 3.569 3.569 0 01-2.996-1.626 5.981 5.981 0 01-.82.588c-1.272.758-1.07 2.676.343 3.12z" fill="#E84857"/><path d="M26.302 1.705c-1.014.417-1.158.509-1.51.454-5.66-.877-10.627 1.465-12.314 6.964a4.117 4.117 0 00-1.011 2.71v3.235c0 1.395-2.155 1.492-2.155-.025V11.46c-.028-1.247.029-5.646 3.206-8.708 3.694-3.56 9.549-3.27 13.79-1.365a.173.173 0 01-.006.318z" fill="#4D4E59"/></g><defs><clipPath id="clip0"><path fill="#fff" d="M0 0h40v40H0z"/></clipPath></defs></svg>