<svg width="20" height="18" fill="none" xmlns="http://www.w3.org/2000/svg"><path d="M19.66 4.038A13.506 13.506 0 0010 0C6.35 0 2.92 1.434.34 4.038a1.185 1.185 0 000 1.663l1.922 1.94c.453.455 1.252.455 1.705 0a8.417 8.417 0 012.168-1.588c.398-.197.655-.611.652-1.003l.29-2.102c2.125-.652 3.743-.652 5.847 0l.287 2.05c0 .443.245.848.645 1.059.798.405 1.529.94 2.173 1.59.225.228.528.353.852.353.324 0 .627-.125.852-.354l1.926-1.945a1.185 1.185 0 000-1.663z" fill="#333"/><path d="M15.205 8.04A2.002 2.002 0 0013.44 7H6.56c-.74 0-1.416.398-1.765 1.04l-2.56 4.714A1.945 1.945 0 002 13.68v2.75c0 .865.718 1.57 1.6 1.57h12.8c.882 0 1.6-.705 1.6-1.571v-2.75c0-.321-.081-.64-.235-.925l-2.56-4.714zm-7.606 7.603a.794.794 0 01-.8-.786c0-.433.359-.785.8-.785.442 0 .8.352.8.785a.794.794 0 01-.8.786zm0-2.357a.794.794 0 01-.8-.786c0-.433.359-.786.8-.786.442 0 .8.353.8.786a.794.794 0 01-.8.786zm0-2.357a.794.794 0 01-.8-.786c0-.433.359-.786.8-.786.442 0 .8.353.8.786a.794.794 0 01-.8.786zM10 15.643a.794.794 0 01-.8-.786c0-.433.359-.785.8-.785.441 0 .8.352.8.785a.794.794 0 01-.8.786zm0-2.357a.794.794 0 01-.8-.786c0-.433.359-.786.8-.786.441 0 .8.353.8.786a.794.794 0 01-.8.786zm0-2.357a.794.794 0 01-.8-.786c0-.433.359-.786.8-.786.441 0 .8.353.8.786a.794.794 0 01-.8.786zm2.4 4.714a.794.794 0 01-.8-.786c0-.433.358-.785.8-.785.44 0 .8.352.8.785a.794.794 0 01-.8.786zm0-2.357a.794.794 0 01-.8-.786c0-.433.358-.786.8-.786.44 0 .8.353.8.786a.794.794 0 01-.8.786zm0-2.357a.794.794 0 01-.8-.786c0-.433.358-.786.8-.786.44 0 .8.353.8.786a.794.794 0 01-.8.786z" fill="#333"/></svg>