<svg width="447" height="419" fill="none" xmlns="http://www.w3.org/2000/svg"><path opacity=".5" d="M447 408.045S347.161 419 223.983 419C100.806 419 .967 414.108.967 408.045c0-6.037 99.839-10.955 223.016-10.955C347.136 397.09 447 408.045 447 408.045z" fill="#2284B5"/><path d="M173.802 194.563c-4.793.287-28.384 2.629-28.384 2.629l-4.693-9.186 33.456-3.565.025.026c.177.52 2.548 7.416-.404 10.096z" fill="#414863"/><path d="M165.803 194.563s-4.92-7.858.403-10.122l.026.026c.151.52 2.523 7.416-.429 10.096z" fill="#000"/><path d="M98.69 218.269l10.244-17.591 38.073 3.253-18.242 32.892-30.075-18.554z" fill="#414863"/><path d="M300.439 255.376s31.69-1.639 32.321 0c.63 1.639 1.286 5.543-.328 7.494-1.59 1.952-44.155 2.29-44.155 2.29l12.162-9.784z" fill="#141C33"/><path d="M317.873 262.532s25.912 52.746 27.855 54.047c1.918 1.301-13.751-54.359-13.751-54.359l-14.104.312z" fill="#141C33"/><path d="M282.525 297.037c-30.404 0-55.054 25.085-55.054 55.998 0 30.914 24.65 55.999 55.054 55.999 30.403 0 55.054-25.085 55.054-55.999 0-30.913-24.676-55.998-55.054-55.998zm0 92.611c-19.882 0-36.005-16.394-36.005-36.613 0-20.245 16.123-36.612 36.005-36.612s36.004 16.393 36.004 36.612c0 20.245-16.122 36.613-36.004 36.613z" fill="#272F44"/><path d="M282.524 311.036c-22.783 0-41.277 18.814-41.277 41.999 0 23.185 18.494 41.999 41.277 41.999 22.784 0 41.278-18.814 41.278-41.999 0-23.185-18.494-41.999-41.278-41.999zm0 78.612c-19.882 0-36.004-16.394-36.004-36.613 0-20.245 16.122-36.612 36.004-36.612 19.882 0 36.005 16.393 36.005 36.612 0 20.245-16.123 36.613-36.005 36.613z" fill="#6F8694"/><path d="M298.092 353.035c0 8.743-6.963 15.847-15.567 15.847s-15.568-7.078-15.568-15.847c0-8.743 6.964-15.847 15.568-15.847s15.567 7.104 15.567 15.847z" fill="#6F8694"/><path d="M268.773 351.786l-7.342-32.605 2.801-.65 6.08 26.958 2.246-2.628-5.626-26.386 2.825-.625 5.904 27.817-6.888 8.119zm20.263 14.963l-32.044 7.494-.656-2.863 26.518-6.193-2.573-2.264-25.938 5.699-.631-2.862 27.351-6.011 7.973 7zm6.734-12.465l7.343 32.605-2.801.651-6.081-26.958-2.245 2.628 5.626 26.386-2.826.624-5.904-27.817 6.888-8.119zm-12.262-14.962l32.044-7.494.656 2.862-26.518 6.193 2.573 2.264 25.963-5.699.606 2.863-27.351 6.011-7.973-7z" fill="#6F8694"/><path d="M55.514 297.037C25.111 297.037.46 322.122.46 353.035c0 30.914 24.65 55.999 55.054 55.999 30.403 0 55.054-25.085 55.054-55.999 0-30.913-24.65-55.998-55.054-55.998zm0 92.611c-19.882 0-36.005-16.394-36.005-36.613 0-20.245 16.123-36.612 36.005-36.612s36.005 16.393 36.005 36.612c0 20.245-16.123 36.613-36.005 36.613z" fill="#272F44"/><path d="M55.514 311.036c-22.784 0-41.278 18.814-41.278 41.999 0 23.185 18.494 41.999 41.278 41.999 22.783 0 41.278-18.814 41.278-41.999 0-23.185-18.495-41.999-41.278-41.999zm0 78.612c-19.882 0-36.005-16.394-36.005-36.613 0-20.245 16.123-36.612 36.005-36.612s36.004 16.393 36.004 36.612c0 20.245-16.122 36.613-36.004 36.613z" fill="#6F8694"/><path d="M71.082 353.035c0 8.743-6.964 15.847-15.568 15.847s-15.568-7.078-15.568-15.847c0-8.743 6.964-15.847 15.568-15.847s15.568 7.104 15.568 15.847z" fill="#6F8694"/><path d="M41.789 351.786l-7.368-32.605 2.826-.65 6.08 26.958 2.221-2.628-5.601-26.386 2.826-.625 5.904 27.817-6.888 8.119zm12.261 14.963l-32.068 7.494-.63-2.863 26.517-6.193-2.599-2.264-25.937 5.699-.606-2.862 27.35-6.011 7.974 7zm14.71-12.465l7.368 32.605-2.826.651-6.08-26.959L65 363.21l5.601 26.386-2.826.624-5.904-27.817 6.888-8.119zm-12.262-14.962l32.069-7.494.63 2.862-26.517 6.193 2.599 2.264 25.937-5.699.606 2.863-27.35 6.011-7.974-7z" fill="#6F8694"/><path d="M91.998 280.253c-3.457-1.744-7.67-.313-9.386 3.2l-33.027 65.809c-2.044 3.331-1.06 7.728 2.245 9.81 3.28 2.082 7.595 1.067 9.664-2.264l34.137-67.734-.151-.052c1.135-3.383-.278-7.156-3.482-8.769z" fill="#88A4B5"/><path d="M310.355 355.95c-4.315 4.397-59.52 15.144-64.011 12.646-4.491-2.472-24.323-16.081-24.323-16.081l12.489-13.193s4.466-1.067 11.052-2.602c17.308-4.008 49.2-11.164 52.329-10.097 2.043.703 5.954 6.376 9.032 12.569 3.331 6.921 5.703 14.468 3.432 16.758z" fill="#414863"/><path opacity=".4" d="M310.355 355.95c-4.315 4.397-59.52 15.144-64.011 12.646-3.659-2.004-17.41-11.371-22.456-14.806a113.837 113.837 0 00-1.867-1.275l12.489-13.193s4.466-1.067 11.052-2.602c-2.221 3.591-4.794 9.133-4.794 13.817 0 6.636 54.776-8.769 66.155-11.345 2.271 4.631 4.088 9.602 4.34 13.036.076 1.692-.177 2.993-.908 3.722z" fill="#414863"/><path opacity=".4" d="M310.354 355.95c-4.314 4.397-59.519 15.144-64.011 12.646-3.658-2.004-17.409-11.371-22.455-14.806l3.406-2.732s14.407 12.698 21.598 13.192c6.484.443 50.916-9.055 62.32-11.995.126 1.665-.126 2.966-.858 3.695z" fill="#414863"/><path d="M91.519 297.167s-.05.104-.152.286c-.656 1.301-3.507 6.974-7.04 14-6.18 12.256-14.457 28.649-16.879 33.489-3.583 7.13-13.549 1.978-13.725-3.799-.05-.676.075-1.379.353-2.081 2.624-6.454 8.074-32.632-7.67-32.423-6.03.078-15.038 1.951-21.018 5.802-3.986 2.264-6.535-1.717-5.374-7.156.959-4.501 4.44-9.992 11.732-13.765 7.847-4.033 16.4-4.944 23.768-4.944 3.18 0 6.308.234 9.36.676.732.105 1.439.235 2.145.365 8.68 1.535 16.754 4.866 23.869 9.524.429.026.63.026.63.026z" fill="#FF5B42"/><path d="M341.913 242.677c-1.161 2.837-7.115 7.859-14.735 13.506-14.987 11.137-36.358 24.72-39.991 28.832-5.425 6.167-43.524 78.429-53.767 84.96-10.244 6.506-145.936 6.167-147.854 3.253-1.917-2.941-3.986-32.397-6.711-42.65-9.765-36.612-44.533-48.322-45.77-51.418-.63-1.64-2.876-19.23-1.286-22.145 1.615-2.94 37.77-43.95 43.851-45.564 6.081-1.613 25.282 0 27.855 1.302 2.549 1.301 17.586 24.07 15.997 30.263-1.59 6.167-20.488 23.757-20.488 23.757s23.036-.312 25.282 3.904c1.488 2.81-9.134 34.999-15.719 56.831 0 .026 0 .078-.025.13-3.331 11.007-5.602 19.36-4.744 19.907 2.574 1.613 55.685 1.301 56.972 1.613h.025c1.463 0 18.847-30.706 20.462-48.192 1.59-17.591-9.613-31.252-9.285-35.155.051-.755.278-2.16.606-3.982 1.488-7.676 5.525-22.482 12.514-24.33 8.629-2.264 17.284.989 39.663-2.602 22.406-3.565 35.223-17.252 39.689-18.892 4.466-1.613 69.133-10.07 69.133-10.07s1.236 2.966 2.8 7.26c.48 1.301.984 2.758 1.489 4.267 2.977 8.796 6.081 20.323 4.037 25.215z" fill="#FF5B42"/><path d="M197.592 346.53s35.197-66.746 49.604-77.493c14.407-10.747 57.123-25.397 60.478-30.757 3.356-5.361-91.689-1.457-91.689-1.457l-35.525 71.299 17.132 38.408z" fill="#FF5B42"/><path d="M99.365 260.893c-1.261 4.892-33.28 18.241-33.28 18.241-.63-1.64-2.875-19.23-1.286-22.145 0 0 35.853-.962 34.566 3.904z" fill="#CDE2E7"/><path d="M152.457 207.184c-2.876 2.628-49.957-1.613-49.604-6.505.328-4.554 31.69-25.398 34.566-24.409 2.877.963 17.914 28.312 15.038 30.914z" fill="#FF5B42"/><path d="M240.131 268.075c-11.202 10.408-38.401 56.649-42.564 78.455-7.923 1.405-16.653 2.055-23.617 2.368-7.367.312-12.792.26-13.17.234 1.463 0 18.847-30.706 20.462-48.192 1.59-17.591-9.613-31.252-9.285-35.155.051-.755.278-2.16.606-3.982l67.568 6.272z" fill="#414863"/><path opacity=".3" d="M181.976 348.898c-7.368.312-12.792.26-13.171.234 1.464 0 18.848-30.706 20.462-48.192 1.59-17.591-9.613-31.252-9.285-35.155 11.38 12.048 15.215 19.854 17.612 31.59 2.018 9.94-11.506 42.025-15.618 51.523z" fill="#414863"/><path d="M328.901 217.41c-7.721 6.766-27.224 22.743-44.003 26.569-21.421 4.892-47.686 15.925-53.767 24.07-8.629 2.94-61.765 2.94-68.174-2.29.328-3.904 4.491-26.048 13.145-28.312 8.629-2.264 17.284.989 39.663-2.602 22.406-3.565 35.223-17.252 39.689-18.892 4.466-1.613 69.133-10.07 69.133-10.07s2.119 5.074 4.314 11.527z" fill="#1A2140"/><path d="M324.913 242.677c-1.161 2.837-7.115 7.859-14.735 13.506-1.009-6.454-2.372-30.342-.933-32.371 1.286-1.822 7.342-8.093 10.168-10.617.479 1.301.984 2.758 1.488 4.268 2.952 8.795 6.056 20.322 4.012 25.214z" fill="#D92E2E"/><path d="M281.717 229.979c0 1.951 12.162 5.855 17.612 3.253 5.449-2.603 31.69-22.795 34.238-28.312 2.548-5.542-10.875-3.253-12.489-2.602-1.59.651-25.282 21.155-39.361 27.661z" fill="#414863"/><path opacity=".5" d="M124.552 327.482c4.995-21.65 11.682-53.24 8.528-54.541-4.794-1.952-40.32 4.892-40.32 4.892s32.17-31.747 31.691-39.059c-.48-7.312-4.945-26.047-4.945-26.047 2.548 1.301 17.586 24.07 15.996 30.263-1.59 6.167-20.488 23.757-20.488 23.757s23.036-.312 25.282 3.904c1.489 2.836-9.159 35.025-15.744 56.831zm27.905-120.298c-2.876 2.628-49.957-1.613-49.604-6.505 0 0 32.649 3.408 38.881 0 6.232-3.409-4.315-24.409-4.315-24.409 2.877.963 17.914 28.312 15.038 30.914zm-60.938 89.983s-.05.104-.152.286c-.656 1.301-3.507 6.974-7.04 14-6.18 12.256-14.456 28.649-16.879 33.489-3.582 7.13-13.549 1.978-13.725-3.799 5.98 1.77 24.02-30.393 27.728-38.408 2.675-5.776-7.039-12.048-16.551-15.482a63.91 63.91 0 0126.013 9.914h.606z" fill="#D93D3D"/><path opacity=".5" d="M341.913 242.677c-1.161 2.837-7.115 7.859-14.735 13.506-14.987 11.137-36.358 24.72-39.991 28.832-5.425 6.167-43.523 78.429-53.767 84.96-10.244 6.506-145.936 6.167-147.854 3.253-1.917-2.941-3.986-32.397-6.711-42.65-9.764-36.612-44.533-48.322-45.77-51.418 4.315.65 32.17 5.048 44.66 33.854 12.49 28.806 13.448 47.359 16.324 52.251 2.876 4.892 111.37 4.892 133.472-3.409 22.077-8.3 46.097-72.262 51.37-79.6 5.248-7.364 57.88-34.218 63.002-39.579z" fill="#D93D3D"/><path d="M128.48 212.727s-13.776.156-20.967 1.613c-7.191 1.457-37.443 34.661-41.757 42.493-4.315 7.807-7.67 22.301-7.67 22.301-.631-1.64-2.877-19.23-1.287-22.145 1.615-2.94 37.77-43.95 43.851-45.564 6.056-1.613 25.282 0 27.83 1.302zm-86.894 90.997c-8.25 2.082-16.526 2.628-21.572 1.562.958-4.502 4.44-9.993 11.732-13.766 7.847-4.033 16.4-4.944 23.768-4.944 3.179 0 6.307.234 9.36.676.732.105 1.439.235 2.145.365 2.725 4.554-11.304 12.568-25.433 16.107z" fill="#FF5B42"/><path opacity=".3" d="M90.364 282.23s26.896-5.36 36.963-2.446c3.356.989-11.051 52.746-11.051 52.746s7.191-35.155 2.876-42.962c-4.314-7.832-28.788-7.338-28.788-7.338z" fill="#FF5B42"/><g opacity=".5" fill="#D93D3D"><path opacity=".5" d="M250.905 311.453l-12.313-12.387.681-.702c3.028-3.097 7.065-4.814 11.379-4.814 2.549 0 5.097.624 7.368 1.821l.858.443-7.973 15.639zm-9.563-12.387l9.058 9.108 5.879-11.502a13.944 13.944 0 00-5.627-1.197c-3.481.026-6.736 1.275-9.31 3.591z"/><path opacity=".5" d="M244.799 300.68a1.943 1.943 0 010-2.707c.731-.754 1.917-.754 2.674 0a1.943 1.943 0 010 2.707 1.863 1.863 0 01-2.674 0z"/><path opacity=".5" d="M242.586 303.386a1.99 1.99 0 010-2.784 1.878 1.878 0 012.725 0 1.99 1.99 0 010 2.784 1.878 1.878 0 01-2.725 0z"/></g><g opacity=".5" fill="#D93D3D"><path opacity=".5" d="M96.57 307.654l6.662-16.238.883.39c3.961 1.692 7.039 4.866 8.654 8.926a16.826 16.826 0 011.11 7.65l-.101.963-17.207-1.691zm7.671-13.662l-4.92 11.97 12.691 1.223a14.507 14.507 0 00-1.035-5.751c-1.286-3.278-3.658-5.881-6.736-7.442z"/><path opacity=".5" d="M104.089 297.869c.404-.962 1.514-1.431 2.473-1.014a1.923 1.923 0 011.009 2.498c-.403.962-1.514 1.431-2.472 1.014a1.924 1.924 0 01-1.01-2.498zm.076 7.39c.429-.988 1.564-1.457 2.548-1.04.984.416 1.438 1.587 1.035 2.576-.429.989-1.565 1.457-2.549 1.041-1.009-.417-1.463-1.562-1.034-2.577z"/></g><g opacity=".5" fill="#D93D3D"><path opacity=".5" d="M106.126 240.362l-7.67-15.769.857-.443c3.861-1.925 8.225-2.212 12.288-.806 2.422.832 4.617 2.289 6.383 4.163l.656.703-12.514 12.152zm-5.097-14.859l5.652 11.632 9.234-8.925a14.049 14.049 0 00-4.945-2.993 13.794 13.794 0 00-9.941.286z"/><path opacity=".5" d="M103.804 228.183c-.454-.962-.076-2.107.858-2.55a1.862 1.862 0 012.523.885c.454.963.076 2.108-.858 2.55a1.906 1.906 0 01-2.523-.885zm5.551 4.815c-.479-.989-.076-2.16.883-2.629a1.936 1.936 0 012.599.911c.479.989.076 2.16-.883 2.628a1.943 1.943 0 01-2.599-.91z"/></g><path d="M289.085 203.619l-14.407-79.756 91.21-14 10.244 82.02-87.047 11.736z" fill="#D93D3D"/><path d="M273.719 134.271l95.676-14.962v1.301l-95.373 16.602-.303-2.941z" fill="#AF2626"/><path d="M286.839 202.63c-1.135 1.431-.328 8.457.631 9.446.959.989 89.293-12.36 90.882-13.661 1.59-1.301.631-8.457-.959-10.097-1.589-1.639-89.267 12.699-90.554 14.312z" fill="#6F8694"/><path d="M164.215 342.158s0 6.115-.48 6.844c-.479.728-20.411 2.185-21.118.234-.732-1.952 12.489-3.409 13.675-4.164 1.211-.728 1.691-3.903 1.691-3.903l6.232.989z" fill="#1D2136"/><path d="M216.315 207.574s-60.327 19.855-65.626 27.661c-5.273 7.807-.731 106.195-.731 106.195l6.232.728 6.484-80.563 2.397-23.445 58.082-28.312-6.838-2.264z" fill="#37435E"/><path d="M242.629 234.429c-8.629 6.583-71.832 16.575-71.832 16.575l-11.026 91.076-6.031.078s-7.342-94.719-5.046-105.96c2.321-11.449 59.621-28.65 59.621-28.65l35.677-4.059 5.55-.677c-.025.026 1.691 25.033-6.913 31.617z" fill="#4B5774"/><path d="M249.744 208.849c-12.161 7.807-43.675 1.614-42.716-1.951.606-2.212 1.11-20.089 2.12-42.572.429-9.524 1.16-19.724 2.447-29.69.606-4.528 1.287-9.004 2.119-13.349 0 0 9.765-36.249 21.119-37.446 11.354-1.197 20.538 19.465 17.914 39.397-3.81 29.301-2.372 72.601-3.003 85.611z" fill="#D93D3D"/><path d="M240.61 107.625c-1.968 22.665-22.379 46.917-31.463 56.701.429-9.524 1.161-19.724 2.448-29.69l29.015-27.011z" fill="#B33232"/><path d="M175.746 342.08s1.413 6.193.933 6.922c-.479.728-21.371 2.185-22.077.234-.732-1.952 12.489-3.409 13.675-4.164 1.211-.728 1.691-3.903 1.691-3.903l5.778.911z" fill="#2C3352"/><path d="M230.695 58.47l3.886 21.468-15.24 14.78-2.069-23.237-2.725-10.695 16.148-2.316z" fill="#EBA87F"/><path d="M205.314 109.577l-25.66 9.654s-28.031-47.177-28.914-46.943c-.858.208-5.4 5.699-5.4 5.699s20.286 51.548 25.66 57.273c12.288 2.628 48.09-5.49 48.09-5.49l-13.776-20.193z" fill="#FFC393"/><path d="M205.086 124.513c-4.971-2.862-11.43-15.795-11.43-15.795s19.63-12.724 21.774-14.26c2.145-1.535 7.115 4.164 7.115 4.164l-17.459 25.891z" fill="#B33232"/><path d="M189.064 31.772c-.227 3.279-.429 21.936 0 26.776.429 4.814 6.03 21.572 9.487 25.736 3.456 4.163 15.088 4.762 20.058-.963 4.971-5.699 8.2-14.468 9.487-20.843 1.287-6.376 2.599-23.472 2.599-23.472l-1.085-15.144s-35.147 3.513-40.546 7.91z" fill="#FFC393"/><path d="M187.348 43.092l11.228-2.863s.857-4.163 0-4.606c-.883-.416-11.455.677-11.228 7.469zm18.772-4.32l14.23-.65s-3.229-5.049-7.544-5.7c-4.314-.65-6.459 0-6.913.885-.429.86.227 5.465.227 5.465z" fill="#64413F"/><path d="M215.203 47.671c0 2.056-1.16 3.721-2.599 3.721-1.438 0-2.598-1.665-2.598-3.72 0-2.056 1.16-3.722 2.598-3.722 1.439 0 2.599 1.666 2.599 3.721zm-15.341.182c0 2.056-.908 3.722-2.018 3.722-1.11 0-2.019-1.666-2.019-3.722 0-2.055.909-3.72 2.019-3.72s2.018 1.665 2.018 3.72z" fill="#434752"/><path d="M200.922 46.448c-.227 5.49-3.456 10.539-3.885 12.725-.429 2.186 8.629 1.743 10.143-.443-2.801.885-6.914.573-7.544-.65-.656-1.223 2.169-3.513 1.286-11.632z" fill="#ED8869"/><path d="M214.522 60.734c-1.943 6.558-5.93 9.68-8.68 11.007-.959.469-1.716.729-2.245.833-1.59-2.056-3.18-6.583-3.18-6.583a28.037 28.037 0 003.079-.235c5.954-.806 9.915-3.408 11.026-5.022z" fill="#fff"/><path d="M205.842 71.715c-.959.469-1.716.729-2.245.833-1.59-2.056-3.18-6.583-3.18-6.583a28.037 28.037 0 003.079-.235l2.346 5.985z" fill="#82172A"/><path d="M221.712 22.847c-6.03 2.055-22.733 12.724-35.096 13.895.429-2.784 2.877-11.996 2.877-11.996l32.219-1.9z" fill="#64413F"/><path d="M213.512 24.876c9.487.729 16.098 10.67 13.222 32.033 3.305-1.9 12.792-4.085 12.943-4.684.151-.572 1.009-9.368 0-17.408-1.009-8.041-11.783-13.454-11.783-13.454l-14.382 3.513z" fill="#64413F"/><path d="M226.733 56.91c2.448-3.071 9.336-12.44 13.221-7.6 3.886 4.815-4.365 16.108-10.344 14.339-3.432-1.015-2.877-6.74-2.877-6.74z" fill="#FFC393"/><path d="M239.677 34.842c-3.784-3.565-10.193-5.516-17.232-6.505h-.026c-15.466-2.186-33.935.234-33.935.234s3.658-10.227 8.402-18.293c2.27-3.878 4.768-7.26 7.241-8.77 7.62-4.684 32.346 2.342 35.525 10.097 3.204 7.728.025 23.237.025 23.237z" fill="#D93D3D"/><path d="M222.444 28.311c-15.466-2.186-33.935.235-33.935.235s-21.144-10.097-20.589-14.468c.58-4.398 12.792-9.655 22.304-6.584 2.145.677 4.391 1.64 6.687 2.784 7.897 3.904 16.627 10.279 25.533 18.033z" fill="#D93D3D"/><path d="M220.83 108.042c-.227-.651-6.863-15.561-6.863-16.862 0-1.328 22.809-13.922 22.809-13.922l2.649 6.844-18.595 23.94z" fill="#E36D6D"/><path d="M211.37 125.814c-13.802 21.078-55.004 53.969-55.004 53.969l4.971 5.491s44.305-25.163 50.916-30.706c9.916-8.327 16.173-16.888 16.173-16.888l-17.056-11.866z" fill="#FFC393"/><path d="M166.94 178.924h-10.345c-2.145 0-6.459 10.539-6.459 12.283 0 1.743 5.399-3.721 5.399-3.721s-1.085 4.397-1.085 5.932c0 1.536 8.629 5.049 9.916 2.186 1.287-2.862 4.971-10.304 4.971-10.304l-2.397-6.376zM149.177 63.649c.732 2.237-1.615 3.356-1.615 3.356s1.237 1.744 1.615 3.956c.379 2.186.126 6.583-.757 8.197-.858 1.613-5.954 1.014-6.207-.443-.252-1.457 1.111-1.9 1.111-1.9s-3.735-.728-3.23-2.341c.505-1.614 2.473-1.614 2.473-1.614s-4.088-.728-3.735-2.628c.379-1.9 2.725-2.342 2.725-2.342s-3.103-1.457-2.851-3.227c.278-1.743 9.487-4.085 10.471-1.014z" fill="#FFC393"/><path d="M145.443 63.362c3.583 1.614 6.762.443 7.039-1.327.278-1.743-4.314-4.527-2.876-11.267 1.186-5.569 5.021-4.372 4.592-.729-.58 5.127 1.59 5.257 3.305 10.227 1.716 4.97 1.211 11.996 1.211 11.996s-2.952 5.256-3.81 6.14c-.857.886-9.789-.572-9.789-.572l-2.145-11.995 2.473-2.473z" fill="#FFC393"/><path d="M200.998 125.372c0 7.234 18.545 19.959 20.487 18.866 6.031-7.234 22.506-33.933 24.146-47.672 1.287-10.747-5.601-16.003-16.4-11.397-10.799 4.605-28.233 40.203-28.233 40.203z" fill="#D93D3D"/><path d="M49.608 408.93h107.863s4.995-2.811 4.011-5.101c-1.009-2.29-23.288 1.77-23.288 1.77s6.257-5.855 2.498-7.885c-3.759-2.029-15.265 5.335-15.265 5.335s9.008-11.216 5.248-14.26c-3.759-3.045-27.022 10.695-27.022 10.695s5.5-6.115 4.264-9.42c-1.262-3.305-20.765 10.695-20.765 10.695s14.028-14.26 10.773-19.36c-3.254-5.101-19.78 8.899-19.78 8.899s1.236-12.933-28.537 18.632zm52.059-31.044c11.505-6.376 17.763-5.335 15.012-1.77 24.777-9.68 22.027-.26 19.529 3.045 16.022-5.335 12.767 1.275 10.774 2.81 0-4.58-14.508.261-14.508.261s5.753-11.71-17.283-3.045c-1.009-6.141-13.524-1.301-13.524-1.301zm55.836-9.992c3.205-3.643 8.276-1.484 6.535 4.059 6.585-9.784-3.759-10.357-6.535-4.059zm-31.791-6.558c4.996-1.535 5.753 2.03 4.516 4.086 5.249-5.881-2.27-7.651-4.516-4.086zm29.52 29.535c6.51-3.045 6.005 1.769 4.996 3.044 11.253-3.044 8.503 1.535 8.251 3.045 5.45-8.457-3.129-6.48-5.753-5.595.202-1.197 1.262-5.855-7.494-.494zm183.286-9.42c11.253-3.045 15.012 1.535 12.01 6.115 14.76-1.275 11.253 4.58 10.017 8.145 19.276-4.32 19.024 1.769 18.014 4.84 6.762-7.885-6.005-10.955-13.523-8.666 3.002-8.899-.757-12.984-11.758-8.144.278-7.13-3.482-8.145-14.76-2.29zm33.81-4.06c6.206-.208 3.002 6.324 2.144 7.417 14.786-1.536 15.214 3.487 14.987 4.788 4.063-8.067-11.353-7.833-11.353-7.833s3.633-6.974-5.778-4.372z" fill="#F0F8FD"/><path d="M361.044 405.521s3.507-4.97.757-5.725c-1.439-.39-6.031.651-10.118 1.744 3.684-4.658 9.562-12.777 6.358-13.584-2.826-.728-7.897 4.606-11.53 9.03.403-2.186.378-4.112-.858-4.45-3.003-.755-11.632 7.65-11.632 7.65s4.996-8.899 2.246-10.694c-5.046-3.253-16.527 11.839-16.527 11.839s4.391-7.26 1.136-10.304c-3.255-3.045-14.155 7.754-14.155 7.754s14.76-18.085 1.741-16.029c-13.019 2.03-27.274 26.23-27.274 26.23s91.058-.729 96.836-.521c-2.346-.364-16.98-2.94-16.98-2.94z" fill="#F0F8FD"/><path d="M361.301 408.435c-.025 0-.126-.026-.302-.026.252.052.378.052.302.026zm-40.553-31.07c6.509-4.319 9.007 2.811 8.502 5.595 6.258-9.16 0-13.479-8.502-5.595zm34.044-10.174c4.012-.755 4.516 3.045 4.516 3.045s7.998-9.16-4.516-3.045z" fill="#F0F8FD"/></svg>