<svg width="222" height="39" fill="none" xmlns="http://www.w3.org/2000/svg"><path d="M46.379 26.453h5.468c1.246 0 2.374-.183 3.383-.57 1.01-.375 1.859-.902 2.536-1.59a6.993 6.993 0 001.568-2.47c.365-.956.558-2.009.558-3.158 0-1.139-.193-2.202-.58-3.169a7.29 7.29 0 00-1.611-2.481c-.698-.688-1.558-1.225-2.567-1.612-1.02-.386-2.138-.58-3.352-.58H46.38v15.63zm3.62-3.276V14.11h1.869c.784 0 1.504.204 2.148.591a4.15 4.15 0 011.504 1.633c.366.698.548 1.472.548 2.331 0 .505-.075.988-.204 1.44-.14.461-.333.88-.59 1.246-.258.365-.57.687-.925.966-.365.28-.773.484-1.235.634-.472.15-.967.226-1.493.226h-1.622zm21.018-2.202c0-1.053-.236-1.998-.687-2.836a4.897 4.897 0 00-1.902-1.955c-.816-.462-1.74-.699-2.771-.699a5.68 5.68 0 00-2.192.42 5.131 5.131 0 00-1.73 1.149 5.405 5.405 0 00-1.138 1.772 5.996 5.996 0 00-.408 2.245c0 .817.14 1.58.43 2.278a5.099 5.099 0 001.17 1.772c.495.484 1.085.86 1.773 1.128.688.28 1.429.408 2.224.408 1.063 0 2.008-.182 2.836-.558.816-.376 1.471-.87 1.965-1.494l-1.826-2.051c-.752.87-1.622 1.3-2.61 1.3-.645 0-1.192-.162-1.665-.484-.473-.322-.763-.784-.881-1.375h7.326c.054-.419.086-.763.086-1.02zm-5.328-2.74c.333 0 .634.076.913.204.269.14.494.333.666.58.172.258.29.56.376.903l-4.028.021c.107-.537.343-.956.72-1.257.365-.3.816-.45 1.353-.45zm6.065 8.218h3.427v-16.2h-3.427v16.2zm6.548-12.042c.602 0 1.118-.182 1.526-.559.408-.376.623-.859.623-1.45 0-.58-.215-1.052-.623-1.428-.408-.376-.924-.57-1.526-.57-.397 0-.762.086-1.085.258a2.05 2.05 0 00-.773.71c-.193.3-.29.644-.29 1.03 0 .591.204 1.075.612 1.45.408.377.924.56 1.536.56zm-1.718 12.042h3.426V15.69h-3.426v10.764zM88.17 15.69l-2.073 6.64h-.043l-2.148-6.64h-3.588l4.178 10.764h3.137L91.79 15.69h-3.62zm13.445 5.286c0-1.053-.236-1.998-.687-2.836a4.903 4.903 0 00-1.902-1.955c-.816-.462-1.74-.699-2.771-.699a5.68 5.68 0 00-2.192.42 5.13 5.13 0 00-1.73 1.149 5.405 5.405 0 00-1.138 1.772 5.996 5.996 0 00-.408 2.245c0 .817.14 1.58.43 2.278a5.099 5.099 0 001.17 1.772c.495.484 1.085.86 1.773 1.128.688.28 1.429.408 2.224.408 1.063 0 2.008-.182 2.836-.558.816-.376 1.471-.87 1.965-1.494l-1.826-2.051c-.752.87-1.622 1.3-2.61 1.3-.645 0-1.192-.162-1.665-.484-.473-.322-.763-.784-.881-1.375h7.326c.054-.419.086-.763.086-1.02zm-5.328-2.74c.333 0 .634.076.913.204.269.14.494.333.666.58.172.258.29.56.376.903l-4.028.021c.107-.537.344-.956.72-1.257.365-.3.816-.45 1.353-.45zm12.543-2.75c-.398 0-.785.065-1.15.194a4.16 4.16 0 00-1.063.548 4.503 4.503 0 00-.903.902h-.043v-1.44h-3.437v10.764h3.437V21.62c0-.473.086-.892.269-1.257a2.02 2.02 0 01.838-.86c.376-.214.827-.321 1.364-.321.322 0 .591.01.806.021v-3.706c-.022 0-.065-.01-.118-.01zm7.343.204l-2.063 5.833h-.053l-2.192-5.833h-3.566l4.2 10.034-1.858 5.08h3.405l5.65-15.114h-3.523zm13 10.979c.516 0 1.031-.054 1.547-.161a6.036 6.036 0 001.525-.548c.505-.258.946-.57 1.332-.945.387-.366.699-.849.935-1.43.236-.58.354-1.224.354-1.933 0-.623-.096-1.17-.268-1.654-.312-.806-.945-1.482-1.901-2.02-.462-.257-1.354-.633-2.665-1.149-.891-.344-1.493-.623-1.815-.86-.322-.236-.473-.526-.462-.87 0-.375.129-.676.387-.891.258-.215.601-.322 1.042-.322.902 0 1.976.505 3.223 1.504l2.094-2.729c-1.676-1.386-3.48-2.062-5.435-2.04-.946.02-1.805.225-2.589.633-.784.408-1.407.956-1.859 1.665a4.248 4.248 0 00-.676 2.331c0 .43.043.838.139 1.203.097.376.226.71.376.988.151.29.355.559.602.817.247.258.494.473.752.655a6.9 6.9 0 00.902.537c.344.172.655.322.956.44.301.119.634.237 1.021.366.902.3 1.525.58 1.847.827.323.247.484.58.484.999 0 .247-.065.462-.172.645-.108.193-.301.343-.569.462-.28.118-.613.171-1.021.171-.58 0-1.203-.15-1.858-.472-.656-.312-1.268-.774-1.827-1.397l-2.169 2.686a8.12 8.12 0 002.717 1.869 7.755 7.755 0 003.051.623zm13.134-10.979v5.328c0 .838-.183 1.483-.538 1.923-.365.44-.816.656-1.353.656-.591 0-1.01-.172-1.268-.537-.257-.366-.376-.978-.376-1.837V15.69h-3.437v6.381c0 3.062 1.289 4.587 3.878 4.587 1.235 0 2.245-.473 3.04-1.418h.054v1.214h3.448V15.69h-3.448zm11.103-.204c-1.268 0-2.288.462-3.062 1.365h-.043v-1.16h-3.448v15.114h3.437V25.4h.054c.72.838 1.687 1.257 2.901 1.257.966 0 1.836-.225 2.61-.687.773-.462 1.375-1.117 1.805-1.966.429-.849.655-1.826.655-2.922 0-.806-.129-1.558-.376-2.256a5.694 5.694 0 00-1.031-1.783 4.871 4.871 0 00-1.569-1.139 4.533 4.533 0 00-1.933-.419zm-.87 8.143c-.688 0-1.257-.226-1.708-.698-.452-.462-.666-1.075-.666-1.837 0-.741.214-1.354.666-1.837.44-.473 1.009-.72 1.697-.72.322 0 .623.065.913.183.279.129.526.3.73.515.204.226.366.494.484.817.118.322.182.666.182 1.042 0 .752-.214 1.364-.644 1.837-.43.472-.988.698-1.654.698zm12.961-8.143c-1.268 0-2.288.462-3.061 1.365h-.043v-1.16h-3.449v15.114h3.438V25.4h.054c.719.838 1.686 1.257 2.9 1.257.967 0 1.837-.225 2.61-.687.774-.462 1.375-1.117 1.805-1.966.43-.849.655-1.826.655-2.922 0-.806-.129-1.558-.376-2.256a5.675 5.675 0 00-1.031-1.783 4.867 4.867 0 00-1.568-1.139 4.537 4.537 0 00-1.934-.419zm-.87 8.143c-.688 0-1.257-.226-1.708-.698-.451-.462-.666-1.075-.666-1.837 0-.741.215-1.354.666-1.837.44-.473 1.01-.72 1.697-.72.322 0 .623.065.913.183.28.129.527.3.731.515.204.226.365.494.483.817.118.322.183.666.183 1.042 0 .752-.215 1.364-.645 1.837-.429.472-.988.698-1.654.698zm11.705 3.04c1.117 0 2.127-.226 3.007-.698a5.119 5.119 0 002.052-1.977c.494-.848.741-1.815.741-2.911 0-1.085-.247-2.052-.741-2.911a5.119 5.119 0 00-2.052-1.977c-.88-.472-1.89-.709-3.007-.709-.86 0-1.644.14-2.364.42a5.294 5.294 0 00-1.847 1.16 5.179 5.179 0 00-1.182 1.772 5.928 5.928 0 00-.419 2.245c0 .816.14 1.568.419 2.256a5.177 5.177 0 001.182 1.772c.505.495 1.117.87 1.847 1.15.72.279 1.504.408 2.364.408zm0-3.062c-.677 0-1.236-.236-1.676-.72-.451-.472-.666-1.073-.666-1.804 0-.73.215-1.343.655-1.815.43-.473.999-.71 1.687-.71.666 0 1.224.237 1.665.71.44.472.666 1.074.666 1.815 0 .73-.226 1.343-.677 1.815a2.193 2.193 0 01-1.654.71zm13.047-8.12a3.44 3.44 0 00-1.149.193 4.167 4.167 0 00-1.064.548 4.473 4.473 0 00-.902.902h-.043v-1.44h-3.438v10.764h3.438V21.62c0-.473.086-.892.268-1.257a2.02 2.02 0 01.838-.86c.376-.214.827-.321 1.365-.321.322 0 .59.01.805.021v-3.706c-.021 0-.064-.01-.118-.01zm3.895 11.171c.688 0 1.246-.053 1.687-.182.44-.13.881-.312 1.321-.559l-.849-2.535a2.295 2.295 0 01-1.063.268c-.312 0-.526-.107-.645-.322-.118-.215-.172-.516-.172-.902v-3.932h2.611V15.69h-2.611v-3.802l-3.437.365v3.437h-1.214v2.804h1.214v4.576c0 1.182.279 2.073.859 2.675.57.612 1.332.913 2.299.913zM27.449 32.17a15.494 15.494 0 003.313-2.788l3.484 2.016 3.172-5.505-3.477-2.01a15.35 15.35 0 00.75-4.274l3.956-.699-1.102-6.259-3.955.699a15.415 15.415 0 00-2.169-3.753l2.586-3.086-4.86-4.086-2.584 3.084a15.254 15.254 0 00-4.067-1.488V0H16.15v4.021c-1.44.304-2.806.81-4.068 1.488L9.5 2.425 4.64 6.511l2.585 3.086a15.422 15.422 0 00-2.169 3.753l-3.954-.699L0 18.911l3.955.698c.049 1.487.309 2.921.75 4.273L1.23 25.893l3.17 5.505 3.484-2.015a15.49 15.49 0 003.313 2.788l-1.375 3.785 5.962 2.173 1.373-3.78a15.424 15.424 0 004.331 0l1.373 3.78 5.962-2.173-1.375-3.785z" fill="#333"/><path d="M36.328 19.453c0 9.392-7.613 17.005-17.004 17.005-9.392 0-17.005-7.613-17.005-17.005 0-9.391 7.613-17.005 17.005-17.005 9.391 0 17.004 7.614 17.004 17.005z" fill="#333"/><path d="M33.816 19.453c0 8.004-6.488 14.493-14.492 14.493-8.004 0-14.493-6.489-14.493-14.493C4.83 11.45 11.32 4.96 19.324 4.96c8.004 0 14.492 6.489 14.492 14.493z" fill="#EFF7FD"/><mask id="a" maskUnits="userSpaceOnUse" x="4" y="0" width="30" height="34"><path d="M33.816 19.453c0 7.247-5.797 14.493-14.492 14.493-8.696 0-14.493-7.236-14.493-14.493C4.83 12.196 12.067.13 19.324.13c7.257 0 14.492 12.078 14.492 19.324z" fill="#fff"/></mask><g mask="url(#a)"><path d="M21.35 15.79h-8.335V5.657c0-.17.14-.307.311-.307h7.713a.31.31 0 01.311.307V15.79z" fill="#EAB14D"/><path d="M20.386 5.349V15.79h.964V5.656a.31.31 0 00-.311-.307h-.653z" fill="#E49542"/><path d="M17.71 7.715h-1.054a.249.249 0 01-.25-.248V5.35h1.554v2.118a.249.249 0 01-.25.248z" fill="#DF6B57"/><path d="M30.92 24.838H18.145V12.403c0-.264.218-.479.486-.479h11.976a.31.31 0 01.311.307v12.607z" fill="#F1CB86"/><path d="M29.955 11.924v12.914h.964V12.231a.31.31 0 00-.311-.307h-.653z" fill="#ECBE6B"/><path d="M25.06 14.29h-1.054a.249.249 0 01-.25-.247v-2.119h1.554v2.119a.249.249 0 01-.25.247z" fill="#365E7D"/><path d="M22.783 32.781H8.127a.395.395 0 01-.398-.393v-9.452c0-.17.14-.307.312-.307h14.41c.184 0 .332.146.332.326v9.826z" fill="#EAB14D"/><path d="M21.82 22.629V32.78h.963v-9.826a.329.329 0 00-.331-.326h-.633z" fill="#E49542"/><path d="M15.783 24.995H14.73a.249.249 0 01-.25-.248V22.63h1.555v2.118a.249.249 0 01-.25.248z" fill="#365E7D"/><path d="M35.158 32.781H22.783v-7.943h12.461a.31.31 0 01.312.307v7.243a.395.395 0 01-.398.393z" fill="#EAB14D"/><path d="M29.696 27.204h-1.054a.249.249 0 01-.25-.247v-2.119h1.555v2.119a.249.249 0 01-.25.247z" fill="#DF6B57"/><path d="M18.146 22.629H9.812v-6.531c0-.17.139-.307.31-.307h8.024v6.838z" fill="#F1CB86"/><path d="M17.183 15.79h.963v6.839h-.963V15.79z" fill="#ECBE6B"/><path d="M14.506 18.157h-1.054a.249.249 0 01-.25-.248v-2.118h1.555v2.118a.249.249 0 01-.251.248z" fill="#DF6B57"/></g></svg>